<?xml version="1.0" encoding="UTF-8"?>
<svg version="1.1" xmlns="http://www.w3.org/2000/svg" width="32" height="32">
<path d="M0 0 C4.83858548 2.32968931 7.67031069 5.16141452 10 10 C10.7971639 14.99447589 10.57907893 18.79729761 8.375 23.375 C5.13226355 26.95907713 2.53524104 29.59535241 -2.3984375 30.3828125 C-8.08222994 30.63883919 -11.64938655 29.93626932 -16 26 C-19.93626932 21.64938655 -20.63883919 18.08222994 -20.3828125 12.3984375 C-19.59535241 7.46475896 -16.95907713 4.86773645 -13.375 1.625 C-8.79729761 -0.57907893 -4.99447589 -0.7971639 0 0 Z " fill="#0B0604" transform="translate(21,1)"/>
<path d="M0 0 C2.10409639 -0.02701408 4.20829178 -0.04640223 6.3125 -0.0625 C7.48425781 -0.07410156 8.65601563 -0.08570313 9.86328125 -0.09765625 C13 0 13 0 16 1 C16 1.99 16 2.98 16 4 C14.02 4.66 12.04 5.32 10 6 C10.99 6.66 11.98 7.32 13 8 C13.65841766 14.0354952 13.65841766 14.0354952 11.83203125 16.7109375 C9.26530268 18.51695121 7.41460363 18.29698601 4.3125 18.1875 C2.82169922 18.14689453 2.82169922 18.14689453 1.30078125 18.10546875 C0.54152344 18.07066406 -0.21773437 18.03585938 -1 18 C-2.125 14.25 -2.125 14.25 -1 12 C1.64 12.33 4.28 12.66 7 13 C6.67 12.34 6.34 11.68 6 11 C3.67843403 10.59270772 1.3431213 10.25561323 -1 10 C-0.67 6.7 -0.34 3.4 0 0 Z " fill="#F5894A" transform="translate(9,7)"/>
<path d="M0 0 C2.31 0 4.62 0 7 0 C7.33 0.99 7.66 1.98 8 3 C5.6568787 2.74438677 3.32156597 2.40729228 1 2 C0.67 1.34 0.34 0.68 0 0 Z " fill="#663A1F" transform="translate(8,17)"/>
</svg>
