<?xml version="1.0" encoding="UTF-8"?>
<svg version="1.1" xmlns="http://www.w3.org/2000/svg" width="64" height="64">
<path d="M0 0 C7.95356295 5.60194453 11.8272836 12.21870922 13.76171875 21.7109375 C14.8549441 29.63307736 12.58675145 37.52786968 8.01171875 44.0234375 C2.04270452 51.27988617 -5.00256178 54.71243557 -14.3046875 55.99609375 C-22.53452155 56.37849008 -30.17756161 53.55826333 -36.48828125 48.3671875 C-42.9178237 42.28208482 -46.20066055 34.59125246 -46.61328125 25.7109375 C-46.15821947 16.30632728 -42.45923402 8.6247754 -35.64453125 2.2109375 C-25.30624396 -5.98166752 -11.28672047 -6.5002055 0 0 Z M-28.23828125 33.7109375 C-30.6364843 36.34778497 -30.6364843 36.34778497 -31.23828125 39.7109375 C-30.24828125 39.7109375 -29.25828125 39.7109375 -28.23828125 39.7109375 C-28.23828125 38.7209375 -28.23828125 37.7309375 -28.23828125 36.7109375 C-27.57828125 36.3809375 -26.91828125 36.0509375 -26.23828125 35.7109375 C-26.23828125 35.0509375 -26.23828125 34.3909375 -26.23828125 33.7109375 C-26.89828125 33.7109375 -27.55828125 33.7109375 -28.23828125 33.7109375 Z " fill="#070403" transform="translate(48.23828125,6.2890625)"/>
<path d="M0 0 C8.25 0 16.5 0 25 0 C25 0.99 25 1.98 25 3 C27.31 3 29.62 3 32 3 C32 4.65 32 6.3 32 8 C29.69 8 27.38 8 25 8 C25 8.99 25 9.98 25 11 C20.38 11 15.76 11 11 11 C11 11.66 11 12.32 11 13 C12.794375 12.87625 12.794375 12.87625 14.625 12.75 C19.09747065 12.74207009 21.53555096 14.11295913 25 17 C27.47823733 20.717356 27.53203788 23.69302669 27 28 C25.12613687 32.58055431 22.23991532 34.57719125 18 37 C10.28628346 39.37345124 3.33143699 37.91177639 -4 35 C-3.42732628 30.89583836 -2.5731146 27.9327865 -1 24 C3.62 24.66 8.24 25.32 13 26 C12.67 25.01 12.34 24.02 12 23 C5.07 22.505 5.07 22.505 -2 22 C-1.85895309 19.08302989 -1.71235186 16.1665198 -1.5625 13.25 C-1.50352539 12.0125 -1.50352539 12.0125 -1.44335938 10.75 C-1.40146484 9.95078125 -1.35957031 9.1515625 -1.31640625 8.328125 C-1.27974854 7.5949707 -1.24309082 6.86181641 -1.20532227 6.10644531 C-1 4 -1 4 0 0 Z M2 27 C-0.39820305 29.63684747 -0.39820305 29.63684747 -1 33 C-0.01 33 0.98 33 2 33 C2 32.01 2 31.02 2 30 C2.66 29.67 3.32 29.34 4 29 C4 28.34 4 27.68 4 27 C3.34 27 2.68 27 2 27 Z " fill="#F78D4A" transform="translate(18,13)"/>
<path d="M0 0 C4.62 0 9.24 0 14 0 C14.33 1.32 14.66 2.64 15 4 C9.158256 4.35050464 5.1468192 4.16727335 0 1 C0 0.67 0 0.34 0 0 Z " fill="#21120A" transform="translate(16,35)"/>
<path d="M0 0 C2.31 0 4.62 0 7 0 C7 1.65 7 3.3 7 5 C4.69 5 2.38 5 0 5 C0 3.35 0 1.7 0 0 Z " fill="#FF5757" transform="translate(43,16)"/>
<path d="M0 0 C1.65 0.33 3.3 0.66 5 1 C4.01 1.495 4.01 1.495 3 2 C2.27840576 3.64363134 1.60648579 5.31050386 1 7 C0.34 7 -0.32 7 -1 7 C-1 8.32 -1 9.64 -1 11 C-1.66 11 -2.32 11 -3 11 C-2.44894091 7.0507432 -1.61064629 3.65079826 0 0 Z " fill="#D77D45" transform="translate(17,37)"/>
</svg>
